<mxfile host="65bd71144e">
    <diagram id="TGxYUn0rRdy-a8Jur79q" name="Page-1">
        <mxGraphModel dx="123" dy="530" grid="1" gridSize="10" guides="1" tooltips="1" connect="1" arrows="1" fold="1" page="1" pageScale="1" pageWidth="850" pageHeight="1100" math="0" shadow="0">
            <root>
                <mxCell id="0"/>
                <mxCell id="1" parent="0"/>
                <mxCell id="RTPB-mFvx7lJfbsmUgy_-11" value="" style="strokeWidth=1;shadow=0;dashed=0;align=center;html=1;shape=mxgraph.mockup.containers.browserWindow;rSize=0;strokeColor=#666666;strokeColor2=#008cff;strokeColor3=#c4c4c4;mainText=,;recursiveResize=0;" parent="1" vertex="1">
                    <mxGeometry x="110" y="550" width="610" height="380" as="geometry"/>
                </mxCell>
                <mxCell id="RTPB-mFvx7lJfbsmUgy_-12" value="Intrvl" style="strokeWidth=1;shadow=0;dashed=0;align=center;html=1;shape=mxgraph.mockup.containers.anchor;fontSize=17;fontColor=#666666;align=left;" parent="RTPB-mFvx7lJfbsmUgy_-11" vertex="1">
                    <mxGeometry x="60" y="12" width="90" height="26" as="geometry"/>
                </mxCell>
                <mxCell id="RTPB-mFvx7lJfbsmUgy_-13" value="https://intrvl.com/users/1/timers" style="strokeWidth=1;shadow=0;dashed=0;align=center;html=1;shape=mxgraph.mockup.containers.anchor;rSize=0;fontSize=17;fontColor=#666666;align=left;" parent="RTPB-mFvx7lJfbsmUgy_-11" vertex="1">
                    <mxGeometry x="130" y="60" width="250" height="26" as="geometry"/>
                </mxCell>
                <mxCell id="RTPB-mFvx7lJfbsmUgy_-18" value="&lt;b&gt;Timer 1&lt;/b&gt;" style="text;html=1;strokeColor=none;fillColor=none;align=center;verticalAlign=middle;whiteSpace=wrap;rounded=0;" parent="RTPB-mFvx7lJfbsmUgy_-11" vertex="1">
                    <mxGeometry x="40" y="175" width="60" height="30" as="geometry"/>
                </mxCell>
                <mxCell id="RTPB-mFvx7lJfbsmUgy_-19" value="User 1's Timers" style="text;html=1;strokeColor=none;fillColor=none;align=center;verticalAlign=middle;whiteSpace=wrap;rounded=0;" parent="RTPB-mFvx7lJfbsmUgy_-11" vertex="1">
                    <mxGeometry x="272.5" y="130" width="105" height="30" as="geometry"/>
                </mxCell>
                <mxCell id="RTPB-mFvx7lJfbsmUgy_-21" value="&lt;b&gt;Timer 2&lt;/b&gt;" style="text;html=1;strokeColor=none;fillColor=none;align=center;verticalAlign=middle;whiteSpace=wrap;rounded=0;" parent="RTPB-mFvx7lJfbsmUgy_-11" vertex="1">
                    <mxGeometry x="40" y="220" width="60" height="30" as="geometry"/>
                </mxCell>
                <mxCell id="RTPB-mFvx7lJfbsmUgy_-22" value="Public" style="rounded=1;whiteSpace=wrap;html=1;" parent="RTPB-mFvx7lJfbsmUgy_-11" vertex="1">
                    <mxGeometry x="110" y="180" width="50" height="20" as="geometry"/>
                </mxCell>
                <mxCell id="RTPB-mFvx7lJfbsmUgy_-23" value="Private" style="rounded=1;whiteSpace=wrap;html=1;" parent="RTPB-mFvx7lJfbsmUgy_-11" vertex="1">
                    <mxGeometry x="110" y="225" width="50" height="20" as="geometry"/>
                </mxCell>
                <mxCell id="QYoHxkmeRW3c7rtWosor-1" value="" style="rounded=0;whiteSpace=wrap;html=1;" parent="1" vertex="1">
                    <mxGeometry x="130" y="30" width="460" height="440" as="geometry"/>
                </mxCell>
                <mxCell id="QYoHxkmeRW3c7rtWosor-2" value="" style="rounded=0;whiteSpace=wrap;html=1;" parent="1" vertex="1">
                    <mxGeometry x="180" y="80" width="160" height="340" as="geometry"/>
                </mxCell>
                <mxCell id="QYoHxkmeRW3c7rtWosor-3" value="app" style="text;html=1;strokeColor=none;fillColor=none;align=center;verticalAlign=middle;whiteSpace=wrap;rounded=0;" parent="1" vertex="1">
                    <mxGeometry x="160" y="30" width="60" height="30" as="geometry"/>
                </mxCell>
                <mxCell id="QYoHxkmeRW3c7rtWosor-5" value="flimList" style="text;html=1;strokeColor=none;fillColor=none;align=center;verticalAlign=middle;whiteSpace=wrap;rounded=0;" parent="1" vertex="1">
                    <mxGeometry x="190" y="80" width="60" height="30" as="geometry"/>
                </mxCell>
                <mxCell id="QYoHxkmeRW3c7rtWosor-6" value="" style="rounded=0;whiteSpace=wrap;html=1;" parent="1" vertex="1">
                    <mxGeometry x="185" y="210" width="130" height="80" as="geometry"/>
                </mxCell>
                <mxCell id="QYoHxkmeRW3c7rtWosor-7" value="filmRow" style="text;html=1;strokeColor=none;fillColor=none;align=center;verticalAlign=middle;whiteSpace=wrap;rounded=0;" parent="1" vertex="1">
                    <mxGeometry x="185" y="200" width="60" height="30" as="geometry"/>
                </mxCell>
                <mxCell id="QYoHxkmeRW3c7rtWosor-8" value="" style="rounded=0;whiteSpace=wrap;html=1;" parent="1" vertex="1">
                    <mxGeometry x="190" y="225" width="50" height="50" as="geometry"/>
                </mxCell>
                <mxCell id="QYoHxkmeRW3c7rtWosor-9" value="Poster" style="text;html=1;strokeColor=none;fillColor=none;align=center;verticalAlign=middle;whiteSpace=wrap;rounded=0;" parent="1" vertex="1">
                    <mxGeometry x="185" y="220" width="60" height="30" as="geometry"/>
                </mxCell>
                <mxCell id="QYoHxkmeRW3c7rtWosor-10" value="" style="rounded=0;whiteSpace=wrap;html=1;" parent="1" vertex="1">
                    <mxGeometry x="255" y="225" width="50" height="50" as="geometry"/>
                </mxCell>
                <mxCell id="QYoHxkmeRW3c7rtWosor-11" value="Fave" style="text;html=1;strokeColor=none;fillColor=none;align=center;verticalAlign=middle;whiteSpace=wrap;rounded=0;" parent="1" vertex="1">
                    <mxGeometry x="250" y="225" width="60" height="30" as="geometry"/>
                </mxCell>
                <mxCell id="QYoHxkmeRW3c7rtWosor-12" value="" style="rounded=0;whiteSpace=wrap;html=1;" parent="1" vertex="1">
                    <mxGeometry x="355" y="80" width="235" height="340" as="geometry"/>
                </mxCell>
                <mxCell id="QYoHxkmeRW3c7rtWosor-13" value="details" style="text;html=1;strokeColor=none;fillColor=none;align=center;verticalAlign=middle;whiteSpace=wrap;rounded=0;" parent="1" vertex="1">
                    <mxGeometry x="365" y="80" width="60" height="30" as="geometry"/>
                </mxCell>
                <mxCell id="QYoHxkmeRW3c7rtWosor-14" value="" style="rounded=0;whiteSpace=wrap;html=1;" parent="1" vertex="1">
                    <mxGeometry x="180" y="310" width="130" height="80" as="geometry"/>
                </mxCell>
                <mxCell id="QYoHxkmeRW3c7rtWosor-15" value="filmRow" style="text;html=1;strokeColor=none;fillColor=none;align=center;verticalAlign=middle;whiteSpace=wrap;rounded=0;" parent="1" vertex="1">
                    <mxGeometry x="190" y="300" width="60" height="30" as="geometry"/>
                </mxCell>
                <mxCell id="QYoHxkmeRW3c7rtWosor-16" value="" style="rounded=0;whiteSpace=wrap;html=1;" parent="1" vertex="1">
                    <mxGeometry x="190" y="330" width="50" height="50" as="geometry"/>
                </mxCell>
                <mxCell id="QYoHxkmeRW3c7rtWosor-17" value="Poster" style="text;html=1;strokeColor=none;fillColor=none;align=center;verticalAlign=middle;whiteSpace=wrap;rounded=0;" parent="1" vertex="1">
                    <mxGeometry x="185" y="330" width="60" height="30" as="geometry"/>
                </mxCell>
                <mxCell id="QYoHxkmeRW3c7rtWosor-18" value="" style="rounded=0;whiteSpace=wrap;html=1;" parent="1" vertex="1">
                    <mxGeometry x="250" y="330" width="50" height="50" as="geometry"/>
                </mxCell>
                <mxCell id="QYoHxkmeRW3c7rtWosor-19" value="Fave" style="text;html=1;strokeColor=none;fillColor=none;align=center;verticalAlign=middle;whiteSpace=wrap;rounded=0;" parent="1" vertex="1">
                    <mxGeometry x="250" y="340" width="60" height="30" as="geometry"/>
                </mxCell>
                <mxCell id="2" value="STATE :&lt;br&gt;films, current" style="text;html=1;strokeColor=none;fillColor=none;align=center;verticalAlign=middle;whiteSpace=wrap;rounded=0;" vertex="1" parent="1">
                    <mxGeometry x="225" y="30" width="195" height="30" as="geometry"/>
                </mxCell>
                <mxCell id="4" value="" style="shape=flexArrow;endArrow=classic;html=1;" edge="1" parent="1">
                    <mxGeometry width="50" height="50" relative="1" as="geometry">
                        <mxPoint x="679.5" y="380" as="sourcePoint"/>
                        <mxPoint x="679.5" y="80" as="targetPoint"/>
                        <Array as="points"/>
                    </mxGeometry>
                </mxCell>
                <mxCell id="5" value="" style="shape=flexArrow;endArrow=classic;html=1;" edge="1" parent="1">
                    <mxGeometry width="50" height="50" relative="1" as="geometry">
                        <mxPoint x="50.5" y="80" as="sourcePoint"/>
                        <mxPoint x="49.5" y="390" as="targetPoint"/>
                    </mxGeometry>
                </mxCell>
                <mxCell id="6" value="&lt;h4&gt;&lt;b&gt;unidirectional data flow&lt;/b&gt;&lt;/h4&gt;" style="text;html=1;strokeColor=none;fillColor=#2A1706;align=center;verticalAlign=middle;whiteSpace=wrap;rounded=0;" vertex="1" parent="1">
                    <mxGeometry y="40" width="100" height="30" as="geometry"/>
                </mxCell>
                <mxCell id="7" value="&lt;h3&gt;action callbacks&lt;/h3&gt;" style="text;html=1;strokeColor=none;fillColor=none;align=center;verticalAlign=middle;whiteSpace=wrap;rounded=0;" vertex="1" parent="1">
                    <mxGeometry x="650" y="30" width="60" height="30" as="geometry"/>
                </mxCell>
                <mxCell id="8" value="&lt;div style=&quot;color: rgb(178 , 202 , 205) ; background-color: rgb(5 , 37 , 41) ; font-family: &amp;#34;menlo&amp;#34; , &amp;#34;monaco&amp;#34; , &amp;#34;courier new&amp;#34; , monospace ; line-height: 18px&quot;&gt;&lt;span style=&quot;color: #d5971a ; font-style: italic&quot;&gt;handleDetailsClick&lt;/span&gt;&lt;/div&gt;" style="text;html=1;strokeColor=none;fillColor=none;align=center;verticalAlign=middle;whiteSpace=wrap;rounded=0;" vertex="1" parent="1">
                    <mxGeometry x="230" y="100" width="60" height="30" as="geometry"/>
                </mxCell>
                <mxCell id="9" value="&lt;div style=&quot;color: rgb(178 , 202 , 205) ; background-color: rgb(5 , 37 , 41) ; font-family: &amp;#34;menlo&amp;#34; , &amp;#34;monaco&amp;#34; , &amp;#34;courier new&amp;#34; , monospace ; line-height: 18px&quot;&gt;&lt;span style=&quot;color: #16a3b6&quot;&gt;handleDetailsClick&lt;/span&gt;&lt;/div&gt;" style="text;html=1;strokeColor=none;fillColor=none;align=center;verticalAlign=middle;whiteSpace=wrap;rounded=0;" vertex="1" parent="1">
                    <mxGeometry x="440" y="40" width="60" height="30" as="geometry"/>
                </mxCell>
                <mxCell id="11" value="&lt;div style=&quot;color: rgb(178 , 202 , 205) ; background-color: rgb(5 , 37 , 41) ; font-family: &amp;#34;menlo&amp;#34; , &amp;#34;monaco&amp;#34; , &amp;#34;courier new&amp;#34; , monospace ; line-height: 18px&quot;&gt;&lt;span style=&quot;color: #d5971a ; font-style: italic&quot;&gt;film&lt;/span&gt;&lt;/div&gt;" style="text;html=1;strokeColor=none;fillColor=none;align=center;verticalAlign=middle;whiteSpace=wrap;rounded=0;" vertex="1" parent="1">
                    <mxGeometry x="370" y="100" width="60" height="30" as="geometry"/>
                </mxCell>
                <mxCell id="19" value="&lt;div style=&quot;color: rgb(178 , 202 , 205) ; background-color: rgb(5 , 37 , 41) ; font-family: &amp;#34;menlo&amp;#34; , &amp;#34;monaco&amp;#34; , &amp;#34;courier new&amp;#34; , monospace ; line-height: 18px&quot;&gt;&lt;span style=&quot;color: #d5971a ; font-style: italic&quot;&gt;films&lt;/span&gt;&lt;/div&gt;" style="text;html=1;strokeColor=none;fillColor=none;align=center;verticalAlign=middle;whiteSpace=wrap;rounded=0;" vertex="1" parent="1">
                    <mxGeometry x="180" y="120" width="60" height="30" as="geometry"/>
                </mxCell>
                <mxCell id="20" value="&lt;div style=&quot;color: rgb(178 , 202 , 205) ; background-color: rgb(5 , 37 , 41) ; font-family: &amp;#34;menlo&amp;#34; , &amp;#34;monaco&amp;#34; , &amp;#34;courier new&amp;#34; , monospace ; line-height: 18px&quot;&gt;&lt;span style=&quot;color: #16a3b6&quot;&gt;handleClick&lt;/span&gt;&lt;/div&gt;" style="text;html=1;strokeColor=none;fillColor=none;align=center;verticalAlign=middle;whiteSpace=wrap;rounded=0;" vertex="1" parent="1">
                    <mxGeometry x="255" y="245" width="60" height="30" as="geometry"/>
                </mxCell>
                <mxCell id="21" value="&lt;div style=&quot;color: rgb(178 , 202 , 205) ; background-color: rgb(5 , 37 , 41) ; font-family: &amp;#34;menlo&amp;#34; , &amp;#34;monaco&amp;#34; , &amp;#34;courier new&amp;#34; , monospace ; line-height: 18px&quot;&gt;&lt;span style=&quot;color: #16a3b6&quot;&gt;handleFaveToggle&lt;/span&gt;&lt;/div&gt;" style="text;html=1;strokeColor=none;fillColor=none;align=center;verticalAlign=middle;whiteSpace=wrap;rounded=0;" vertex="1" parent="1">
                    <mxGeometry x="220" y="160" width="60" height="30" as="geometry"/>
                </mxCell>
            </root>
        </mxGraphModel>
    </diagram>
</mxfile>